<svg width="56" height="56" viewBox="0 0 56 56" fill="none" xmlns="http://www.w3.org/2000/svg">
<g clip-path="url(#clip0_457_119)">
<rect width="56" height="56" fill="url(#paint0_linear_457_119)"/>
<rect width="56" height="56" fill="url(#paint1_radial_457_119)"/>
<path d="M19.5947 68.5925C37.3729 68.5925 51.785 54.1778 51.785 36.3962C51.785 18.6147 37.3729 4.19995 19.5947 4.19995C1.81645 4.19995 -12.5956 18.6147 -12.5956 36.3962C-12.5956 54.1778 1.81645 68.5925 19.5947 68.5925Z" fill="#FFC800"/>
<path d="M33.4479 60.3842C22.5159 66.6935 10.66 67.8242 3.08688 64.0449C12.7827 69.8232 25.2318 70.323 35.6955 64.2823C46.1592 58.2353 51.953 47.2034 51.7969 35.9153C51.2849 44.3673 44.3799 54.0749 33.4479 60.3842Z" fill="black"/>
<path d="M23.6772 6.56136C25.8936 10.3969 20.5369 17.6433 11.7089 22.7345C2.88089 27.8257 -6.06571 28.8501 -8.28207 25.0083C-8.37572 24.8272 -8.46313 24.6273 -8.52556 24.4211C-9.09994 22.6345 -8.41318 20.3232 -6.75872 17.8869C-6.49026 17.5059 -6.21555 17.131 -5.93461 16.7625C-3.4373 13.5079 -0.271955 10.6843 3.49898 8.51038C7.26992 6.33023 11.2968 5.0059 15.3612 4.46867C15.8357 4.39995 16.2977 4.34998 16.7472 4.31874C19.6815 4.1001 22.0228 4.66232 23.2839 6.04912C23.4337 6.21779 23.5649 6.38645 23.6772 6.56136Z" fill="black"/>
<path d="M37.3625 10.7155C41.2333 17.4183 33.423 29.1687 19.925 36.9648C6.42706 44.7608 -7.65776 45.6479 -11.5223 38.945C-12.1654 37.8268 -12.5088 36.5837 -12.5775 35.2469C-12.746 39.7509 -11.9719 44.3298 -10.1676 48.6776C-9.8991 49.3273 -9.60566 49.9707 -9.2935 50.6079C-9.28101 50.6329 -9.26228 50.6641 -9.2498 50.6891C-8.0823 52.7068 -6.35916 54.2935 -4.21148 55.443C3.36161 59.4972 16.1666 58.1041 28.1412 51.1888C40.1095 44.2736 47.7201 33.8851 48.001 25.3019C48.0822 22.8781 47.5765 20.598 46.4215 18.5803C45.9844 17.9243 45.5287 17.2809 45.0479 16.6687C42.2073 12.9956 38.6736 10.072 34.7465 7.9856C35.8391 8.70398 36.7257 9.60978 37.3625 10.7155C37.3625 10.7155 37.3687 10.7217 37.3687 10.728L37.3625 10.7155Z" fill="black"/>
<path d="M19.6011 68.5925C37.3793 68.5925 51.7914 54.1778 51.7914 36.3962C51.7914 18.6147 37.3793 4.19995 19.6011 4.19995C1.82289 4.19995 -12.5892 18.6147 -12.5892 36.3962C-12.5892 54.1778 1.82289 68.5925 19.6011 68.5925Z" fill="url(#paint2_radial_457_119)"/>
</g>
<defs>
<linearGradient id="paint0_linear_457_119" x1="-1.11053e-07" y1="54.4141" x2="45.6355" y2="62.0382" gradientUnits="userSpaceOnUse">
<stop offset="0.1" stop-color="#FFC700"/>
<stop offset="0.9003" stop-color="#FFD90E"/>
</linearGradient>
<radialGradient id="paint1_radial_457_119" cx="0" cy="0" r="1" gradientUnits="userSpaceOnUse" gradientTransform="translate(0.738284 56.3008) rotate(-45.5336) scale(78.89)">
<stop offset="0.238839" stop-color="#FF8979"/>
<stop offset="0.854176" stop-color="#FF9F68" stop-opacity="0"/>
</radialGradient>
<radialGradient id="paint2_radial_457_119" cx="0" cy="0" r="1" gradientUnits="userSpaceOnUse" gradientTransform="translate(19.5981 36.3989) scale(32.1896 32.208)">
<stop offset="0.5" stop-color="white" stop-opacity="0"/>
<stop offset="1" stop-color="white" stop-opacity="0.35"/>
</radialGradient>
<clipPath id="clip0_457_119">
<rect width="56" height="56" fill="white"/>
</clipPath>
</defs>
</svg>
