<svg width="56" height="56" viewBox="0 0 56 56" fill="none" xmlns="http://www.w3.org/2000/svg">
<g clip-path="url(#clip0_69_328)">
<rect width="56" height="56" fill="url(#paint0_linear_69_328)"/>
<rect width="56" height="56" fill="url(#paint1_radial_69_328)"/>
<path d="M19.5947 68.5925C37.3729 68.5925 51.785 54.1778 51.785 36.3962C51.785 18.6147 37.3729 4.19995 19.5947 4.19995C1.81651 4.19995 -12.5956 18.6147 -12.5956 36.3962C-12.5956 54.1778 1.81651 68.5925 19.5947 68.5925Z" fill="#FFC800"/>
<path d="M33.4479 60.3842C22.516 66.6935 10.66 67.8242 3.08691 64.0449C12.7827 69.8232 25.2318 70.323 35.6955 64.2823C46.1593 58.2353 51.953 47.2034 51.7969 35.9153C51.285 44.3673 44.3799 54.0749 33.4479 60.3842Z" fill="black"/>
<path d="M23.6773 6.56136C25.8936 10.3969 20.5369 17.6433 11.7089 22.7345C2.88093 27.8257 -6.06568 28.8501 -8.28204 25.0083C-8.37569 24.8272 -8.4631 24.6273 -8.52553 24.4211C-9.09991 22.6345 -8.41315 20.3232 -6.75869 17.8869C-6.49023 17.5059 -6.21552 17.131 -5.93457 16.7625C-3.43727 13.5079 -0.271924 10.6843 3.49901 8.51038C7.26995 6.33023 11.2969 5.0059 15.3612 4.46867C15.8357 4.39995 16.2977 4.34998 16.7472 4.31874C19.6816 4.1001 22.0228 4.66232 23.2839 6.04912C23.4338 6.21779 23.5649 6.38645 23.6773 6.56136Z" fill="black"/>
<path d="M37.3625 10.7155C41.2333 17.4183 33.423 29.1687 19.925 36.9648C6.42709 44.7608 -7.65773 45.6479 -11.5223 38.945C-12.1654 37.8268 -12.5088 36.5837 -12.5774 35.2469C-12.746 39.7509 -11.9718 44.3298 -10.1675 48.6776C-9.89907 49.3273 -9.60563 49.9707 -9.29347 50.6079C-9.28098 50.6329 -9.26225 50.6641 -9.24977 50.6891C-8.08227 52.7068 -6.35913 54.2935 -4.21145 55.443C3.36164 59.4972 16.1666 58.1041 28.1412 51.1888C40.1095 44.2736 47.7201 33.8851 48.001 25.3019C48.0822 22.8781 47.5765 20.598 46.4215 18.5803C45.9845 17.9243 45.5287 17.2809 45.048 16.6687C42.2073 12.9956 38.6736 10.072 34.7466 7.9856C35.8391 8.70398 36.7257 9.60978 37.3625 10.7155C37.3625 10.7155 37.3687 10.7217 37.3687 10.728L37.3625 10.7155Z" fill="black"/>
<path d="M19.6011 68.5925C37.3793 68.5925 51.7914 54.1778 51.7914 36.3962C51.7914 18.6147 37.3793 4.19995 19.6011 4.19995C1.82292 4.19995 -12.5892 18.6147 -12.5892 36.3962C-12.5892 54.1778 1.82292 68.5925 19.6011 68.5925Z" fill="url(#paint2_radial_69_328)"/>
</g>
<defs>
<linearGradient id="paint0_linear_69_328" x1="-1.11053e-07" y1="54.4141" x2="45.6355" y2="62.0382" gradientUnits="userSpaceOnUse">
<stop offset="0.1" stop-color="#FFC700"/>
<stop offset="0.9003" stop-color="#FFD90E"/>
</linearGradient>
<radialGradient id="paint1_radial_69_328" cx="0" cy="0" r="1" gradientUnits="userSpaceOnUse" gradientTransform="translate(0.738284 56.3008) rotate(-45.5336) scale(78.89)">
<stop offset="0.238839" stop-color="#FF8979"/>
<stop offset="0.854176" stop-color="#FF9F68" stop-opacity="0"/>
</radialGradient>
<radialGradient id="paint2_radial_69_328" cx="0" cy="0" r="1" gradientUnits="userSpaceOnUse" gradientTransform="translate(19.5981 36.3989) scale(32.1896 32.208)">
<stop offset="0.5" stop-color="white" stop-opacity="0"/>
<stop offset="1" stop-color="white" stop-opacity="0.35"/>
</radialGradient>
<clipPath id="clip0_69_328">
<rect width="56" height="56" rx="8" fill="white"/>
</clipPath>
</defs>
</svg>
