<svg width="36" height="36" viewBox="0 0 36 36" fill="none" xmlns="http://www.w3.org/2000/svg">
<g clip-path="url(#clip0_252_73)">
<rect width="36" height="36" fill="url(#paint0_linear_252_73)"/>
<rect width="36" height="36" fill="url(#paint1_radial_252_73)"/>
<path d="M12.5961 44.0952C24.025 44.0952 33.2899 34.8286 33.2899 23.3976C33.2899 11.9667 24.025 2.70001 12.5961 2.70001C1.16726 2.70001 -8.09766 11.9667 -8.09766 23.3976C-8.09766 34.8286 1.16726 44.0952 12.5961 44.0952Z" fill="#FFC800"/>
<path d="M21.5022 38.8184C14.4745 42.8744 6.85279 43.6013 1.98438 41.1717C8.21739 44.8863 16.2204 45.2076 22.9471 41.3243C29.6737 37.437 33.3983 30.345 33.298 23.0884C32.9688 28.5218 28.5299 34.7624 21.5022 38.8184Z" fill="black"/>
<path d="M15.2209 4.21801C16.6457 6.68373 13.2021 11.3421 7.52693 14.615C1.8518 17.8879 -3.89959 18.5465 -5.3244 16.0768C-5.3846 15.9603 -5.44079 15.8318 -5.48093 15.6993C-5.85017 14.5508 -5.40868 13.0649 -4.3451 11.4987C-4.17251 11.2538 -3.99592 11.0128 -3.81531 10.7759C-2.2099 8.68362 -0.175035 6.86846 2.24914 5.47095C4.67331 4.06943 7.26204 3.21807 9.87485 2.87271C10.1799 2.82853 10.4769 2.79641 10.7659 2.77633C12.6522 2.63577 14.1573 2.9972 14.968 3.88871C15.0643 3.99714 15.1486 4.10557 15.2209 4.21801Z" fill="black"/>
<path d="M24.0191 6.88853C26.5075 11.1975 21.4866 18.7513 12.8093 23.7631C4.13208 28.7748 -4.92245 29.3451 -7.40683 25.0361C-7.82022 24.3173 -8.04097 23.5181 -8.08512 22.6587C-8.19348 25.5541 -7.6958 28.4977 -6.53589 31.2928C-6.36331 31.7104 -6.17467 32.124 -5.974 32.5337C-5.96597 32.5497 -5.95393 32.5698 -5.9459 32.5859C-5.19537 33.883 -4.08764 34.903 -2.70698 35.6419C2.16143 38.2482 10.3932 37.3527 18.0911 32.9071C25.7851 28.4616 30.6776 21.7833 30.8582 16.2655C30.9104 14.7074 30.5853 13.2416 29.8428 11.9445C29.5618 11.5228 29.2688 11.1092 28.9598 10.7156C27.1336 8.35431 24.862 6.4749 22.3375 5.13361C23.0398 5.59543 23.6098 6.17772 24.0191 6.88853C24.0191 6.88853 24.0231 6.89254 24.0231 6.89656L24.0191 6.88853Z" fill="black"/>
<path d="M12.602 44.0952C24.0308 44.0952 33.2957 34.8286 33.2957 23.3976C33.2957 11.9667 24.0308 2.70001 12.602 2.70001C1.17312 2.70001 -8.0918 11.9667 -8.0918 23.3976C-8.0918 34.8286 1.17312 44.0952 12.602 44.0952Z" fill="url(#paint2_radial_252_73)"/>
</g>
<defs>
<linearGradient id="paint0_linear_252_73" x1="-7.13912e-08" y1="34.9805" x2="29.3371" y2="39.8817" gradientUnits="userSpaceOnUse">
<stop offset="0.1" stop-color="#FFC700"/>
<stop offset="0.9003" stop-color="#FFD90E"/>
</linearGradient>
<radialGradient id="paint1_radial_252_73" cx="0" cy="0" r="1" gradientUnits="userSpaceOnUse" gradientTransform="translate(0.474611 36.1934) rotate(-45.5336) scale(50.715)">
<stop offset="0.238839" stop-color="#FF8979"/>
<stop offset="0.854176" stop-color="#FF9F68" stop-opacity="0"/>
</radialGradient>
<radialGradient id="paint2_radial_252_73" cx="0" cy="0" r="1" gradientUnits="userSpaceOnUse" gradientTransform="translate(12.6 23.3994) scale(20.6933 20.7052)">
<stop offset="0.5" stop-color="white" stop-opacity="0"/>
<stop offset="1" stop-color="white" stop-opacity="0.35"/>
</radialGradient>
<clipPath id="clip0_252_73">
<rect width="36" height="36" rx="8" fill="white"/>
</clipPath>
</defs>
</svg>
