<svg width="36" height="36" viewBox="0 0 36 36" fill="none" xmlns="http://www.w3.org/2000/svg">
<rect width="36" height="36" rx="8" fill="white"/>
<path d="M17.3418 26.3238L17.6554 24.9642V20.963H18.3453V24.9642L18.6589 26.3238V31.4997H17.3418V26.3238Z" fill="#262526"/>
<path d="M18.6582 9.67624L18.3446 11.0358L18.3446 15.037L17.6547 15.037L17.6547 11.0358L17.3411 9.67624L17.3411 4.50034L18.6582 4.50034L18.6582 9.67624Z" fill="#262526"/>
<path d="M9.67636 17.3419L11.0359 17.6555L15.0371 17.6555L15.0371 18.3454L11.0359 18.3454L9.67636 18.659L4.50047 18.659L4.50047 17.3419L9.67636 17.3419Z" fill="#262526"/>
<path d="M26.3256 18.6581L24.966 18.3445L20.9648 18.3445L20.9648 17.6546L24.966 17.6546L26.3256 17.341L31.5015 17.341L31.5015 18.6581L26.3256 18.6581Z" fill="#262526"/>
<path d="M17.3418 26.3238L17.6554 24.9642V20.963H18.3453V24.9642L18.6589 26.3238V31.4997H17.3418V26.3238Z" fill="#262526"/>
<path d="M18.6582 9.67624L18.3446 11.0358L18.3446 15.037L17.6547 15.037L17.6547 11.0358L17.3411 9.67624L17.3411 4.50034L18.6582 4.50034L18.6582 9.67624Z" fill="#262526"/>
<path d="M9.67636 17.3419L11.0359 17.6555L15.0371 17.6555L15.0371 18.3454L11.0359 18.3454L9.67636 18.659L4.50047 18.659L4.50047 17.3419L9.67636 17.3419Z" fill="#262526"/>
<path d="M26.3256 18.6581L24.966 18.3445L20.9648 18.3445L20.9648 17.6546L24.966 17.6546L26.3256 17.341L31.5015 17.341L31.5015 18.6581L26.3256 18.6581Z" fill="#262526"/>
<path d="M11.6488 23.4199L12.8319 22.6803L15.6612 19.851L16.149 20.3388L13.3198 23.1681L12.5801 24.3512L8.92024 28.0111L7.98892 27.0798L11.6488 23.4199Z" fill="#262526"/>
<path d="M24.3512 12.5801L23.1681 13.3197L20.3388 16.149L19.851 15.6612L22.6802 12.8319L23.4199 11.6488L27.0798 7.98888L28.0111 8.9202L24.3512 12.5801Z" fill="#262526"/>
<path d="M12.5805 11.6485L13.3201 12.8316L16.1494 15.6608L15.6615 16.1487L12.8323 13.3194L11.6492 12.5798L7.98925 8.91987L8.92056 7.98855L12.5805 11.6485Z" fill="#262526"/>
<path d="M23.4215 24.3515L22.6819 23.1684L19.8526 20.3392L20.3404 19.8513L23.1697 22.6806L24.3528 23.4202L28.0127 27.0801L27.0814 28.0114L23.4215 24.3515Z" fill="#262526"/>
<path d="M11.6488 23.4199L12.8319 22.6803L15.6612 19.851L16.149 20.3388L13.3198 23.1681L12.5801 24.3512L8.92024 28.0111L7.98892 27.0798L11.6488 23.4199Z" fill="#262526"/>
<path d="M24.3512 12.5801L23.1681 13.3197L20.3388 16.149L19.851 15.6612L22.6802 12.8319L23.4199 11.6488L27.0798 7.98888L28.0111 8.9202L24.3512 12.5801Z" fill="#262526"/>
<path d="M12.5805 11.6485L13.3201 12.8316L16.1494 15.6608L15.6615 16.1487L12.8323 13.3194L11.6492 12.5798L7.98925 8.91987L8.92056 7.98855L12.5805 11.6485Z" fill="#262526"/>
<path d="M23.4215 24.3515L22.6819 23.1684L19.8526 20.3392L20.3404 19.8513L23.1697 22.6806L24.3528 23.4202L28.0127 27.0801L27.0814 28.0114L23.4215 24.3515Z" fill="#262526"/>
<path d="M20.5184 25.9616L20.2981 24.5838L18.7945 20.8759L19.4338 20.6167L20.9374 24.3246L21.739 25.4667L23.684 30.2632L22.4635 30.7581L20.5184 25.9616Z" fill="#262526"/>
<path d="M15.4835 10.0384L15.7038 11.4162L17.2074 15.1241L16.5681 15.3833L15.0645 11.6754L14.263 10.5333L12.3179 5.73681L13.5385 5.24186L15.4835 10.0384Z" fill="#262526"/>
<path d="M10.038 20.5188L11.4158 20.2985L15.1237 18.7949L15.383 19.4342L11.675 20.9378L10.533 21.7393L5.73644 23.6844L5.2415 22.4638L10.038 20.5188Z" fill="#262526"/>
<path d="M25.962 15.4812L24.5842 15.7015L20.8763 17.2051L20.617 16.5658L24.325 15.0622L25.467 14.2607L30.2636 12.3156L30.7585 13.5362L25.962 15.4812Z" fill="#262526"/>
<path d="M20.5184 25.9616L20.2981 24.5838L18.7945 20.8759L19.4338 20.6167L20.9374 24.3246L21.739 25.4667L23.684 30.2632L22.4635 30.7581L20.5184 25.9616Z" fill="#262526"/>
<path d="M15.4835 10.0384L15.7038 11.4162L17.2074 15.1241L16.5681 15.3833L15.0645 11.6754L14.263 10.5333L12.3179 5.73681L13.5385 5.24186L15.4835 10.0384Z" fill="#262526"/>
<path d="M10.038 20.5188L11.4158 20.2985L15.1237 18.7949L15.383 19.4342L11.675 20.9378L10.533 21.7393L5.73644 23.6844L5.2415 22.4638L10.038 20.5188Z" fill="#262526"/>
<path d="M25.962 15.4812L24.5842 15.7015L20.8763 17.2051L20.617 16.5658L24.325 15.0622L25.467 14.2607L30.2636 12.3156L30.7585 13.5362L25.962 15.4812Z" fill="#262526"/>
<path d="M14.1519 25.4092L14.9704 24.2792L16.5291 20.5941L17.1645 20.8628L15.6058 24.5479L15.365 25.9223L13.3487 30.6893L12.1356 30.1762L14.1519 25.4092Z" fill="#262526"/>
<path d="M21.85 10.5897L21.0316 11.7197L19.4729 15.4048L18.8375 15.1361L20.3962 11.451L20.637 10.0766L22.6533 5.30962L23.8663 5.8227L21.85 10.5897Z" fill="#262526"/>
<path d="M10.5901 14.1506L11.7201 14.969L15.4052 16.5277L15.1364 17.1631L11.4513 15.6044L10.077 15.3636L5.30999 13.3473L5.82307 12.1343L10.5901 14.1506Z" fill="#262526"/>
<path d="M25.4099 21.8483L24.2799 21.0299L20.5948 19.4712L20.8636 18.8358L24.5487 20.3945L25.923 20.6353L30.69 22.6516L30.1769 23.8646L25.4099 21.8483Z" fill="#262526"/>
<path d="M14.1519 25.4092L14.9704 24.2792L16.5291 20.5941L17.1645 20.8628L15.6058 24.5479L15.365 25.9223L13.3487 30.6893L12.1356 30.1762L14.1519 25.4092Z" fill="#262526"/>
<path d="M21.85 10.5897L21.0316 11.7197L19.4729 15.4048L18.8375 15.1361L20.3962 11.451L20.637 10.0766L22.6533 5.30962L23.8663 5.8227L21.85 10.5897Z" fill="#262526"/>
<path d="M10.5901 14.1506L11.7201 14.969L15.4052 16.5277L15.1364 17.1631L11.4513 15.6044L10.077 15.3636L5.30999 13.3473L5.82307 12.1343L10.5901 14.1506Z" fill="#262526"/>
<path d="M25.4099 21.8483L24.2799 21.0299L20.5948 19.4712L20.8636 18.8358L24.5487 20.3945L25.923 20.6353L30.69 22.6516L30.1769 23.8646L25.4099 21.8483Z" fill="#262526"/>
</svg>
