<svg width="16" height="16" viewBox="0 0 16 16" fill="none" xmlns="http://www.w3.org/2000/svg">
<g clip-path="url(#clip0_35_26)">
<path d="M12.25 0H3.75C1.67893 0 0 1.67893 0 3.75V12.25C0 14.3211 1.67893 16 3.75 16H12.25C14.3211 16 16 14.3211 16 12.25V3.75C16 1.67893 14.3211 0 12.25 0Z" fill="#242938"/>
<mask id="mask0_35_26" style="mask-type:luminance" maskUnits="userSpaceOnUse" x="3" y="2" width="9" height="12">
<path d="M3.97925 2H11.9808V14H3.97925V2Z" fill="white"/>
</mask>
<g mask="url(#mask0_35_26)">
<path d="M5.98075 13.9999C7.08475 13.9999 7.98073 13.1039 7.98073 11.9999V9.99988H5.98075C4.87675 9.99988 3.98071 10.8959 3.98071 11.9999C3.98071 13.1039 4.87675 13.9999 5.98075 13.9999Z" fill="#0ACF83"/>
<path d="M3.98071 8.0001C3.98071 6.8961 4.87675 6.00012 5.98075 6.00012H7.98073V10.0001H5.98075C4.87675 10.0001 3.98071 9.1041 3.98071 8.0001Z" fill="#A259FF"/>
<path d="M3.98047 3.99998C3.98047 2.89598 4.87651 2 5.98051 2H7.98049V6.00002H5.98051C4.87651 6.00002 3.98047 5.10398 3.98047 3.99998Z" fill="#F24E1E"/>
<path d="M7.98047 2H9.98045C11.0844 2 11.9805 2.89598 11.9805 3.99998C11.9805 5.10398 11.0844 6.00002 9.98045 6.00002H7.98047V2Z" fill="#FF7262"/>
<path d="M11.9805 8.0001C11.9805 9.1041 11.0844 10.0001 9.98045 10.0001C8.87645 10.0001 7.98047 9.1041 7.98047 8.0001C7.98047 6.8961 8.87645 6.00012 9.98045 6.00012C11.0844 6.00012 11.9805 6.8961 11.9805 8.0001Z" fill="#1ABCFE"/>
</g>
</g>
<defs>
<clipPath id="clip0_35_26">
<rect width="16" height="16" rx="8" fill="white"/>
</clipPath>
</defs>
</svg>
