<svg width="20" height="20" viewBox="0 0 20 20" fill="none" xmlns="http://www.w3.org/2000/svg">
<path d="M14.25 2H5.75C3.67893 2 2 3.67893 2 5.75V14.25C2 16.3211 3.67893 18 5.75 18H14.25C16.3211 18 18 16.3211 18 14.25V5.75C18 3.67893 16.3211 2 14.25 2Z" fill="white"/>
<path d="M14.25 2H5.75C3.67893 2 2 3.67893 2 5.75V14.25C2 16.3211 3.67893 18 5.75 18H14.25C16.3211 18 18 16.3211 18 14.25V5.75C18 3.67893 16.3211 2 14.25 2Z" fill="#0A66C2"/>
<path d="M13.5447 15.6053H15.3741C15.4404 15.6053 15.5039 15.579 15.5508 15.5321C15.5977 15.4852 15.624 15.4217 15.6241 15.3554L15.625 11.4902C15.625 9.47006 15.1897 7.91725 12.8289 7.91725C11.9314 7.88388 11.0851 8.3465 10.6284 9.119C10.6262 9.12275 10.6228 9.12567 10.6188 9.12731C10.6147 9.12895 10.6102 9.12922 10.606 9.12808C10.6018 9.12694 10.5981 9.12445 10.5954 9.12099C10.5927 9.11754 10.5913 9.1133 10.5913 9.10894V8.35375C10.5913 8.28745 10.5649 8.22386 10.518 8.17697C10.4711 8.13009 10.4076 8.10375 10.3413 8.10375H8.60519C8.53888 8.10375 8.4753 8.13009 8.42841 8.17697C8.38153 8.22386 8.35519 8.28745 8.35519 8.35375V15.355C8.35519 15.4213 8.38153 15.4849 8.42841 15.5318C8.4753 15.5787 8.53888 15.605 8.60519 15.605H10.4344C10.5007 15.605 10.5643 15.5787 10.6112 15.5318C10.6581 15.4849 10.6844 15.4213 10.6844 15.355V11.8942C10.6844 10.9156 10.8701 9.96794 12.0833 9.96794C13.2792 9.96794 13.2947 11.0877 13.2947 11.9576V15.3553C13.2947 15.4216 13.321 15.4852 13.3679 15.5321C13.4148 15.579 13.4784 15.6053 13.5447 15.6053ZM4.375 5.72669C4.375 6.46825 4.98544 7.07837 5.727 7.07837C6.46837 7.07831 7.07844 6.46781 7.07844 5.72644C7.07831 4.98506 6.46819 4.375 5.72675 4.375C4.98512 4.375 4.375 4.98519 4.375 5.72669ZM4.80994 15.6053H6.64162C6.70793 15.6053 6.77152 15.579 6.8184 15.5321C6.86529 15.4852 6.89162 15.4216 6.89162 15.3553V8.35375C6.89162 8.28745 6.86529 8.22386 6.8184 8.17697C6.77152 8.13009 6.70793 8.10375 6.64162 8.10375H4.80994C4.74363 8.10375 4.68004 8.13009 4.63316 8.17697C4.58628 8.22386 4.55994 8.28745 4.55994 8.35375V15.3553C4.55994 15.4216 4.58628 15.4852 4.63316 15.5321C4.68004 15.579 4.74363 15.6053 4.80994 15.6053Z" fill="white"/>
</svg>
