<svg width="56" height="56" viewBox="0 0 56 56" fill="none" xmlns="http://www.w3.org/2000/svg">
<rect width="56" height="56" rx="8" fill="white"/>
<path d="M26.9755 40.9481L27.4633 38.8332V32.6091H28.5364V38.8332L29.0243 40.9481V48.9995H26.9755V40.9481Z" fill="#262526"/>
<path d="M29.0245 15.0519L28.5367 17.1668L28.5367 23.3909L27.4636 23.3909L27.4636 17.1668L26.9757 15.0519L26.9757 7.00053L29.0245 7.00053L29.0245 15.0519Z" fill="#262526"/>
<path d="M15.0511 26.9763L17.166 27.4641L23.39 27.4641L23.39 28.5373L17.166 28.5373L15.0511 29.0251L6.99968 29.0251L6.99968 26.9763L15.0511 26.9763Z" fill="#262526"/>
<path d="M40.9489 29.0237L38.834 28.5359L32.61 28.5359L32.61 27.4627L38.834 27.4627L40.9489 26.9749L49.0003 26.9749L49.0003 29.0237L40.9489 29.0237Z" fill="#262526"/>
<path d="M26.9755 40.9481L27.4633 38.8332V32.6091H28.5364V38.8332L29.0243 40.9481V48.9995H26.9755V40.9481Z" fill="#262526"/>
<path d="M29.0245 15.0519L28.5367 17.1668L28.5367 23.3909L27.4636 23.3909L27.4636 17.1668L26.9757 15.0519L26.9757 7.00053L29.0245 7.00053L29.0245 15.0519Z" fill="#262526"/>
<path d="M15.0511 26.9763L17.166 27.4641L23.39 27.4641L23.39 28.5373L17.166 28.5373L15.0511 29.0251L6.99968 29.0251L6.99968 26.9763L15.0511 26.9763Z" fill="#262526"/>
<path d="M40.9489 29.0237L38.834 28.5359L32.61 28.5359L32.61 27.4627L38.834 27.4627L40.9489 26.9749L49.0003 26.9749L49.0003 29.0237L40.9489 29.0237Z" fill="#262526"/>
<path d="M18.1198 36.4309L19.9602 35.2804L24.3613 30.8794L25.1201 31.6382L20.7191 36.0393L19.5685 37.8797L13.8754 43.5729L12.4266 42.1241L18.1198 36.4309Z" fill="#262526"/>
<path d="M37.8802 19.5691L36.0398 20.7196L31.6387 25.1206L30.8799 24.3618L35.2809 19.9607L36.4315 18.1203L42.1246 12.4271L43.5734 13.8759L37.8802 19.5691Z" fill="#262526"/>
<path d="M19.5691 18.1198L20.7196 19.9602L25.1206 24.3613L24.3618 25.1201L19.9607 20.7191L18.1203 19.5685L12.4271 13.8754L13.8759 12.4266L19.5691 18.1198Z" fill="#262526"/>
<path d="M36.4318 37.8802L35.2813 36.0398L30.8802 31.6387L31.6391 30.8799L36.0401 35.2809L37.8805 36.4315L43.5737 42.1246L42.125 43.5734L36.4318 37.8802Z" fill="#262526"/>
<path d="M18.1198 36.4309L19.9602 35.2804L24.3613 30.8794L25.1201 31.6382L20.7191 36.0393L19.5685 37.8797L13.8754 43.5729L12.4266 42.1241L18.1198 36.4309Z" fill="#262526"/>
<path d="M37.8802 19.5691L36.0398 20.7196L31.6387 25.1206L30.8799 24.3618L35.2809 19.9607L36.4315 18.1203L42.1246 12.4271L43.5734 13.8759L37.8802 19.5691Z" fill="#262526"/>
<path d="M19.5691 18.1198L20.7196 19.9602L25.1206 24.3613L24.3618 25.1201L19.9607 20.7191L18.1203 19.5685L12.4271 13.8754L13.8759 12.4266L19.5691 18.1198Z" fill="#262526"/>
<path d="M36.4318 37.8802L35.2813 36.0398L30.8802 31.6387L31.6391 30.8799L36.0401 35.2809L37.8805 36.4315L43.5737 42.1246L42.125 43.5734L36.4318 37.8802Z" fill="#262526"/>
<path d="M31.9155 40.3847L31.5729 38.2415L29.2339 32.4737L30.2284 32.0704L32.5674 37.8382L33.8142 39.6148L36.8398 47.0761L34.9412 47.846L31.9155 40.3847Z" fill="#262526"/>
<path d="M24.0845 15.6153L24.4271 17.7585L26.7661 23.5263L25.7716 23.9296L23.4326 18.1618L22.1858 16.3852L19.1602 8.92393L21.0588 8.15401L24.0845 15.6153Z" fill="#262526"/>
<path d="M15.6144 31.9181L17.7576 31.5754L23.5255 29.2365L23.9288 30.231L18.1609 32.5699L16.3843 33.8167L8.92307 36.8424L8.15316 34.9437L15.6144 31.9181Z" fill="#262526"/>
<path d="M40.3856 24.0819L38.2424 24.4246L32.4745 26.7635L32.0712 25.769L37.8391 23.4301L39.6157 22.1833L47.0769 19.1576L47.8468 21.0563L40.3856 24.0819Z" fill="#262526"/>
<path d="M31.9155 40.3847L31.5729 38.2415L29.2339 32.4737L30.2284 32.0704L32.5674 37.8382L33.8142 39.6148L36.8398 47.0761L34.9412 47.846L31.9155 40.3847Z" fill="#262526"/>
<path d="M24.0845 15.6153L24.4271 17.7585L26.7661 23.5263L25.7716 23.9296L23.4326 18.1618L22.1858 16.3852L19.1602 8.92393L21.0588 8.15401L24.0845 15.6153Z" fill="#262526"/>
<path d="M15.6144 31.9181L17.7576 31.5754L23.5255 29.2365L23.9288 30.231L18.1609 32.5699L16.3843 33.8167L8.92307 36.8424L8.15316 34.9437L15.6144 31.9181Z" fill="#262526"/>
<path d="M40.3856 24.0819L38.2424 24.4246L32.4745 26.7635L32.0712 25.769L37.8391 23.4301L39.6157 22.1833L47.0769 19.1576L47.8468 21.0563L40.3856 24.0819Z" fill="#262526"/>
<path d="M22.0129 39.5254L23.286 37.7676L25.7106 32.0352L26.699 32.4533L24.2744 38.1857L23.8998 40.3235L20.7633 47.7389L18.8764 46.9408L22.0129 39.5254Z" fill="#262526"/>
<path d="M33.988 16.4729L32.7148 18.2307L30.2902 23.963L29.3018 23.545L31.7265 17.8126L32.101 15.6748L35.2375 8.25941L37.1245 9.05753L33.988 16.4729Z" fill="#262526"/>
<path d="M16.4737 22.012L18.2315 23.2852L23.9639 25.7098L23.5458 26.6982L17.8135 24.2735L15.6756 23.899L8.26027 20.7625L9.05839 18.8755L16.4737 22.012Z" fill="#262526"/>
<path d="M39.5263 33.9863L37.7685 32.7131L32.0361 30.2885L32.4542 29.3001L38.1865 31.7247L40.3244 32.0993L47.7397 35.2358L46.9416 37.1227L39.5263 33.9863Z" fill="#262526"/>
<path d="M22.0129 39.5254L23.286 37.7676L25.7106 32.0352L26.699 32.4533L24.2744 38.1857L23.8998 40.3235L20.7633 47.7389L18.8764 46.9408L22.0129 39.5254Z" fill="#262526"/>
<path d="M33.988 16.4729L32.7148 18.2307L30.2902 23.963L29.3018 23.545L31.7265 17.8126L32.101 15.6748L35.2375 8.25941L37.1245 9.05753L33.988 16.4729Z" fill="#262526"/>
<path d="M16.4737 22.012L18.2315 23.2852L23.9639 25.7098L23.5458 26.6982L17.8135 24.2735L15.6756 23.899L8.26027 20.7625L9.05839 18.8755L16.4737 22.012Z" fill="#262526"/>
<path d="M39.5263 33.9863L37.7685 32.7131L32.0361 30.2885L32.4542 29.3001L38.1865 31.7247L40.3244 32.0993L47.7397 35.2358L46.9416 37.1227L39.5263 33.9863Z" fill="#262526"/>
</svg>
