<svg width="17" height="16" viewBox="0 0 17 16" fill="none" xmlns="http://www.w3.org/2000/svg">
<path d="M8.33193 15.9982C12.7489 15.9982 16.3295 12.4169 16.3295 7.99908C16.3295 3.58131 12.7489 0 8.33193 0C3.91499 0 0.334351 3.58131 0.334351 7.99908C0.334351 12.4169 3.91499 15.9982 8.33193 15.9982Z" fill="#FFC800"/>
<path d="M11.7738 13.9588C9.0578 15.5263 6.11222 15.8072 4.23071 14.8682C6.63961 16.3039 9.73254 16.428 12.3322 14.9272C14.9319 13.4249 16.3713 10.684 16.3326 7.87952C16.2054 9.97939 14.4898 12.3912 11.7738 13.9588Z" fill="black"/>
<path d="M9.34659 0.586617C9.89724 1.53955 8.56638 3.33989 6.37309 4.60478C4.17981 5.86968 1.95705 6.12421 1.4064 5.16972C1.38313 5.12471 1.36142 5.07504 1.34591 5.02383C1.2032 4.57995 1.37383 4.00571 1.78487 3.40042C1.85157 3.30575 1.91982 3.21263 1.98962 3.12106C2.61007 2.31246 3.39649 1.61095 4.33337 1.07085C5.27025 0.529193 6.27072 0.200165 7.2805 0.0666921C7.39838 0.0496199 7.51317 0.0372041 7.62485 0.0294441C8.35387 -0.0248764 8.93555 0.114805 9.24887 0.459352C9.2861 0.501257 9.31867 0.543161 9.34659 0.586617Z" fill="black"/>
<path d="M12.7464 1.61878C13.7081 3.28409 11.7676 6.20343 8.41412 8.14035C5.06059 10.0773 1.56126 10.2976 0.601114 8.63234C0.441349 8.35453 0.356037 8.04568 0.338975 7.71354C0.297095 8.83255 0.489434 9.97017 0.937708 11.0504C1.00441 11.2118 1.07731 11.3716 1.15487 11.5299C1.15797 11.5362 1.16262 11.5439 1.16572 11.5501C1.45578 12.0514 1.88389 12.4456 2.41748 12.7312C4.29899 13.7385 7.48034 13.3924 10.4554 11.6743C13.4289 9.95621 15.3197 7.37521 15.3895 5.24274C15.4097 4.64056 15.284 4.07407 14.9971 3.57277C14.8885 3.40981 14.7753 3.24995 14.6558 3.09785C13.9501 2.18527 13.0721 1.45892 12.0965 0.940552C12.3679 1.11903 12.5882 1.34408 12.7464 1.61878C12.7464 1.61878 12.7479 1.62033 12.7479 1.62189L12.7464 1.61878Z" fill="black"/>
<path d="M8.33389 15.9982C12.7508 15.9982 16.3315 12.4169 16.3315 7.99908C16.3315 3.58131 12.7508 0 8.33389 0C3.91694 0 0.336304 3.58131 0.336304 7.99908C0.336304 12.4169 3.91694 15.9982 8.33389 15.9982Z" fill="url(#paint0_radial_28_12)"/>
<defs>
<radialGradient id="paint0_radial_28_12" cx="0" cy="0" r="1" gradientUnits="userSpaceOnUse" gradientTransform="translate(8.33314 7.99975) scale(7.9974 8.002)">
<stop offset="0.5" stop-color="white" stop-opacity="0"/>
<stop offset="1" stop-color="white" stop-opacity="0.35"/>
</radialGradient>
</defs>
</svg>
