<svg width="17" height="16" viewBox="0 0 17 16" fill="none" xmlns="http://www.w3.org/2000/svg">
<g clip-path="url(#clip0_319_253)">
<rect x="0.666504" width="16" height="16" rx="8" fill="#1F9370"/>
<path d="M0.72255 13.3372C0.280065 14.9543 0.136235 16.5975 0.201463 18.2591L3.86203 22.6817C3.86332 22.6669 3.86462 22.6521 3.87955 22.6534C3.96329 22.5564 4.02888 22.6665 4.08343 22.731C4.61206 23.5679 5.28792 23.5823 6.189 23.2584C7.82173 22.6554 9.50252 22.1909 11.1586 21.6646C11.3443 21.6063 11.5676 21.4617 11.7176 21.6389C11.8826 21.8175 11.6852 22.009 11.5963 22.1653C11.4133 22.5372 11.1855 22.9051 11.0174 23.2782C10.8305 23.6945 10.5546 23.9239 10.08 24.0166C9.28409 24.1707 8.76429 25.4678 9.1228 26.1853C9.28971 26.5132 9.48316 26.3661 9.67272 26.2633C10.2576 25.9416 10.8438 25.605 11.43 25.2685C11.4612 25.2563 11.4774 25.2428 11.5086 25.2306C11.4911 25.2589 11.4748 25.2724 11.4573 25.3007C11.3821 25.8162 11.1153 26.2852 11.1745 26.8125C11.2363 27.3101 11.3376 27.5278 11.9199 27.2357C12.9748 26.7015 13.8447 26.0467 14.3191 24.9247C14.5261 24.4505 14.7915 23.9964 15.1128 23.5919C15.7567 22.7682 15.7559 21.9178 15.5253 20.9429C15.3596 20.2571 14.9486 20.3107 14.4656 20.3281C13.8307 20.362 14.1541 20.7931 14.1281 21.0891C14.0265 22.4228 13.619 23.6402 12.8459 24.7361C12.7083 24.9329 12.4655 24.9564 12.2513 24.9973C12.0831 25.0273 11.8799 25.114 11.7572 24.969C11.6059 24.8065 11.7857 24.6433 11.8584 24.5005C12.3555 23.634 12.8365 22.7811 13.3473 21.9307C13.8568 21.0952 13.445 20.2984 13.2124 19.5173C13.1189 19.2107 12.7488 19.3126 12.4775 19.3187C10.8628 19.3713 9.24816 19.4239 7.61858 19.4751C7.54003 19.513 7.44655 19.5496 7.39459 19.4555C7.38096 19.4394 7.47703 19.3733 7.51079 19.3315C7.87954 19.2444 8.23465 19.1412 8.6034 19.0542C9.387 18.8692 9.49344 18.6845 9.2771 17.8899C8.77555 16.0559 8.2753 14.2071 7.75882 12.3719C7.48336 11.393 6.63016 10.8261 6.03532 10.058C5.57684 9.45101 5.54241 9.32865 5.88895 8.46395C6.00021 9.77149 7.07283 10.2383 7.77609 10.9711C8.25857 11.4758 8.80855 11.8969 9.2748 12.415C9.98781 13.2084 12.1166 12.7831 12.4138 11.7948C12.4793 11.5618 12.3468 11.3563 12.2591 11.1547C11.7902 9.97993 11.3361 8.80648 10.836 7.6439C10.6372 7.16407 10.6917 6.88541 11.1383 6.59632C11.8881 6.11 12.6119 5.57667 13.3357 5.04333C13.4805 4.93666 13.7584 4.85656 13.5999 4.60401C13.4947 4.43071 13.2727 4.56045 13.1169 4.6214C12.3528 4.92745 11.5887 5.23351 10.8259 5.52475C10.0942 5.80381 9.35271 5.33614 9.24219 4.53585C9.19604 4.20363 9.40429 3.37157 8.58768 4.10563C8.37542 4.29589 8.31044 4.00678 8.24744 3.86701C8.02141 3.35495 7.69671 2.93868 7.24478 2.60078C6.87726 2.32993 6.70264 2.43398 6.67999 2.8646C6.67611 2.90902 6.65599 2.96692 6.66703 3.01264C6.92953 4.1395 6.36481 4.74643 5.41572 5.27497C4.35562 5.86838 3.48126 6.74655 2.66403 7.65957C2.49657 7.85375 2.1499 8.03225 2.63429 8.34316C2.91999 8.51734 2.58567 8.72676 2.46689 8.88045C1.68928 9.8566 1.01231 10.8863 0.506762 12.0205C0.377614 12.2927 0.0465649 12.6366 0.630917 12.8369C0.830904 12.9589 0.765372 13.1918 0.72255 13.3372Z" fill="white"/>
<path d="M15.1296 3.8205L10.0467 5.87709L10.4198 7.08252L15.1296 3.8205Z" fill="white"/>
<path d="M9.36229 7.49407C9.36229 7.49407 8.90636 7.67635 8.54886 6.67147C8.54886 6.67147 9.54363 6.76495 9.36229 7.49407Z" fill="white"/>
</g>
<defs>
<clipPath id="clip0_319_253">
<rect x="0.666504" width="16" height="16" rx="8" fill="white"/>
</clipPath>
</defs>
</svg>
