<svg width="16" height="16" viewBox="0 0 16 16" fill="none" xmlns="http://www.w3.org/2000/svg">
<path d="M7.99862 15.9982C12.4156 15.9982 15.9962 12.4169 15.9962 7.99908C15.9962 3.58131 12.4156 0 7.99862 0C3.58168 0 0.0010376 3.58131 0.0010376 7.99908C0.0010376 12.4169 3.58168 15.9982 7.99862 15.9982Z" fill="#FFC800"/>
<path d="M11.4405 13.9588C8.72449 15.5263 5.77891 15.8072 3.8974 14.8682C6.30629 16.3039 9.39923 16.428 11.9989 14.9272C14.5986 13.4249 16.038 10.684 15.9993 7.87952C15.8721 9.97939 14.1565 12.3912 11.4405 13.9588Z" fill="black"/>
<path d="M9.01322 0.586617C9.56387 1.53955 8.233 3.33989 6.03972 4.60478C3.84643 5.86968 1.62367 6.12421 1.07303 5.16972C1.04976 5.12471 1.02804 5.07504 1.01253 5.02383C0.86983 4.57995 1.04045 4.00571 1.4515 3.40042C1.5182 3.30575 1.58645 3.21263 1.65625 3.12106C2.2767 2.31246 3.06312 1.61095 3.99999 1.07085C4.93687 0.529193 5.93735 0.200165 6.94713 0.0666921C7.06501 0.0496199 7.17979 0.0372041 7.29147 0.0294441C8.0205 -0.0248764 8.60217 0.114805 8.9155 0.459352C8.95272 0.501257 8.9853 0.543161 9.01322 0.586617Z" fill="black"/>
<path d="M12.413 1.61878C13.3747 3.28409 11.4343 6.20343 8.08074 8.14035C4.72722 10.0773 1.22788 10.2976 0.26774 8.63234C0.107975 8.35453 0.0226633 8.04568 0.00560097 7.71354C-0.0362793 8.83255 0.15606 9.97017 0.604334 11.0504C0.671032 11.2118 0.743935 11.3716 0.821491 11.5299C0.824594 11.5362 0.829247 11.5439 0.832349 11.5501C1.12241 12.0514 1.55052 12.4456 2.0841 12.7312C3.96561 13.7385 7.14697 13.3924 10.122 11.6743C13.0955 9.95621 14.9863 7.37521 15.0561 5.24274C15.0763 4.64056 14.9507 4.07407 14.6637 3.57277C14.5551 3.40981 14.4419 3.24995 14.3225 3.09785C13.6167 2.18527 12.7388 1.45892 11.7631 0.940552C12.0346 1.11903 12.2548 1.34408 12.413 1.61878C12.413 1.61878 12.4146 1.62033 12.4146 1.62189L12.413 1.61878Z" fill="black"/>
<path d="M8.00051 15.9982C12.4175 15.9982 15.9981 12.4169 15.9981 7.99908C15.9981 3.58131 12.4175 0 8.00051 0C3.58357 0 0.00292969 3.58131 0.00292969 7.99908C0.00292969 12.4169 3.58357 15.9982 8.00051 15.9982Z" fill="url(#paint0_radial_28_2)"/>
<defs>
<radialGradient id="paint0_radial_28_2" cx="0" cy="0" r="1" gradientUnits="userSpaceOnUse" gradientTransform="translate(7.99977 7.99975) scale(7.9974 8.002)">
<stop offset="0.5" stop-color="white" stop-opacity="0"/>
<stop offset="1" stop-color="white" stop-opacity="0.35"/>
</radialGradient>
</defs>
</svg>
